<svg xmlns="http://www.w3.org/2000/svg" width="26.718" height="31.618" viewBox="0 0 26.718 31.618"><defs><style>.a{fill:#7b7b7b;}</style></defs><g transform="translate(0 0)"><path class="a" d="M8.442,27.014A8.451,8.451,0,0,1,0,18.572V6.753a1.126,1.126,0,0,1,2.251,0V18.572a6.191,6.191,0,1,0,12.381,0V6.191a3.939,3.939,0,0,0-7.879,0V17.446a1.688,1.688,0,0,0,3.377,0V6.753a1.126,1.126,0,0,1,2.251,0V17.446a3.94,3.94,0,0,1-7.879,0V6.191a6.191,6.191,0,0,1,12.381,0V18.572A8.451,8.451,0,0,1,8.442,27.014Zm0,0" transform="translate(11.416 0) rotate(25)"/></g></svg>