<svg xmlns="http://www.w3.org/2000/svg" viewBox="0 0 245.64 99.17"><defs><style>.cls-1{fill:#fff;}</style></defs><title>IBMLogobranco</title><g id="Layer_2" data-name="Layer 2"><g id="Layer_1-2" data-name="Layer 1"><polygon class="cls-1" points="245.64 7.05 204.75 7.05 207.27 0.01 245.64 0.01 245.64 7.05"/><path class="cls-1" d="M136.64,0h38l2.49,7.07s-40.44,0-40.44,0S136.63,0,136.64,0Z"/><path class="cls-1" d="M106.49,0a27.33,27.33,0,0,1,16.33,7.07H54V0Z"/><rect class="cls-1" x="0.01" width="47.8" height="7.05"/><path class="cls-1" d="M245.64,20.28H200.07s2.48-7,2.47-7h43.1Z"/><polygon class="cls-1" points="181.79 20.29 136.64 20.29 136.64 13.27 179.31 13.27 181.79 20.29"/><path class="cls-1" d="M128.18,13.26c.9,2.32,2,4.3,2,7H54v-7Z"/><rect class="cls-1" x="0.01" y="13.26" width="47.8" height="7.02"/><polygon class="cls-1" points="195.41 33.54 197.91 26.49 232.13 26.5 232.13 33.53 195.41 33.54"/><polygon class="cls-1" points="183.98 26.49 186.47 33.54 150.1 33.54 150.1 26.49 183.98 26.49"/><path class="cls-1" d="M130.76,26.49a22.77,22.77,0,0,1-1,7.05H108.91v-7Z"/><rect class="cls-1" x="13.33" y="26.52" width="20.55" height="7.02"/><rect class="cls-1" x="67.85" y="26.49" width="20.51" height="7.05"/><path class="cls-1" d="M170.3,41.15V46.5H150.1v-7h38.51L191,46s2.3-6.56,2.31-6.55h38.8v7H212l0-5.34-1.85,5.34h-38Z"/><path class="cls-1" d="M67.85,39.48h58.88a26.22,26.22,0,0,1-5.84,7h-53Z"/><rect class="cls-1" x="13.33" y="39.48" width="20.55" height="7.02"/><rect class="cls-1" x="212.01" y="52.71" width="20.11" height="7.01"/><path class="cls-1" d="M170.3,52.71H150.1v7h20.21S170.33,52.71,170.3,52.71Z"/><path class="cls-1" d="M208,52.71c-.1,0-2.36,7-2.45,7H176.85s-2.51-7-2.52-7Z"/><path class="cls-1" d="M67.85,52.71h52.94a34.6,34.6,0,0,1,6.31,7H67.85Z"/><path class="cls-1" d="M33.87,59.73v-7H13.36s0,7,0,7Z"/><rect class="cls-1" x="212.01" y="65.94" width="20.1" height="7.02"/><rect class="cls-1" x="150.1" y="65.94" width="20.2" height="7.01"/><path class="cls-1" d="M200.79,73s2.48-7.06,2.52-7H179s2.5,7,2.5,7S200.79,73,200.79,73Z"/><path class="cls-1" d="M67.85,73v-7H88.67s0,7,0,7Z"/><path class="cls-1" d="M130,65.94c1,2.11,1.11,4.63,1.31,7H109.28v-7Z"/><rect class="cls-1" x="13.36" y="65.94" width="20.51" height="7.01"/><rect class="cls-1" x="212.01" y="78.89" width="33.63" height="7.02"/><rect class="cls-1" x="136.64" y="78.89" width="33.67" height="7.02"/><polygon class="cls-1" points="196.27 85.91 186 85.91 183.53 78.89 198.64 78.89 196.27 85.91"/><path class="cls-1" d="M0,78.89v7H47.77s0-7,0-7Z"/><path class="cls-1" d="M130.46,78.89c-.51,2.32-1,5.14-2.66,7H54v-7Z"/><polygon class="cls-1" points="191.61 99.16 190.67 99.16 188.27 92.13 194.08 92.13 191.61 99.16"/><rect class="cls-1" x="212.01" y="92.12" width="33.63" height="7.05"/><path class="cls-1" d="M54,99.16v-7h69.21a26.12,26.12,0,0,1-17.84,7H54"/><rect class="cls-1" x="136.64" y="92.12" width="33.67" height="7.05"/><path class="cls-1" d="M47.77,92.16s0,7,0,7S0,99.19,0,99.17s0-7,0-7S47.75,92.18,47.77,92.16Z"/></g></g></svg>